<svg width="20" height="20" viewBox="0 0 20 20" fill="none" xmlns="http://www.w3.org/2000/svg">
<g id="Group">
<path id="Vector" d="M1.00006 16.75V6.06252C1.00006 4.71986 1.53343 3.43219 2.48283 2.48279C3.43224 1.53338 4.7199 1.00002 6.06256 1.00002H13.9376C14.6024 1.00002 15.2607 1.13096 15.8749 1.38538C16.4891 1.63979 17.0472 2.01269 17.5173 2.48279C17.9874 2.95288 18.3603 3.51097 18.6147 4.12518C18.8691 4.73939 19.0001 5.3977 19.0001 6.06252V13.9375C19.0001 14.6023 18.8691 15.2606 18.6147 15.8748C18.3603 16.4891 17.9874 17.0471 17.5173 17.5172C17.0472 17.9873 16.4891 18.3602 15.8749 18.6147C15.2607 18.8691 14.6024 19 13.9376 19H3.25006C2.65332 19 2.08103 18.763 1.65907 18.341C1.23711 17.919 1.00006 17.3468 1.00006 16.75V16.75Z" stroke="white" stroke-width="2" stroke-linecap="round" stroke-linejoin="round"/>
<path id="Vector_2" d="M5.98492 9.7408H9.92242C10.5192 9.7408 11.0915 9.97785 11.5134 10.3998C11.9354 10.8218 12.1724 11.3941 12.1724 11.9908C12.1724 12.5875 11.9354 13.1598 11.5134 13.5818C11.0915 14.0037 10.5192 14.2408 9.92242 14.2408H5.98492V6.3658C5.98492 6.06743 6.10345 5.78128 6.31443 5.5703C6.52541 5.35933 6.81156 5.2408 7.10992 5.2408H8.79742C9.39416 5.2408 9.96646 5.47785 10.3884 5.89981C10.8104 6.32177 11.0474 6.89406 11.0474 7.4908C11.0474 8.08754 10.8104 8.65983 10.3884 9.08179C9.96646 9.50375 9.39416 9.7408 8.79742 9.7408H7.10992M14.9849 14.2408H14.9962" stroke="white" stroke-width="2" stroke-linecap="round" stroke-linejoin="round"/>
</g>
</svg>
