<svg width="18" height="22" viewBox="0 0 18 22" fill="none" xmlns="http://www.w3.org/2000/svg">
<g id="Group 3">
<path id="Vector" d="M10.8375 1.8125H3.48752C3.00019 1.8125 2.53281 2.00609 2.18822 2.35069C1.84362 2.69529 1.65002 3.16266 1.65002 3.65V18.35C1.65002 18.8373 1.84362 19.3047 2.18822 19.6493C2.53281 19.9939 3.00019 20.1875 3.48752 20.1875H14.5125C14.9999 20.1875 15.4672 19.9939 15.8118 19.6493C16.1564 19.3047 16.35 18.8373 16.35 18.35V7.325L10.8375 1.8125Z" stroke="white" stroke-width="2" stroke-linecap="round" stroke-linejoin="round"/>
<path id="Vector_2" d="M12.6751 15.5938H5.32507" stroke="white" stroke-width="2" stroke-linecap="round" stroke-linejoin="round"/>
<path id="Vector_3" d="M12.6751 11.9188H5.32507" stroke="white" stroke-width="2" stroke-linecap="round" stroke-linejoin="round"/>
<path id="Vector_4" d="M7.16257 8.24377H6.24382H5.32507" stroke="white" stroke-width="2" stroke-linecap="round" stroke-linejoin="round"/>
<path id="Vector_5" d="M10.8375 1.8125V7.325H16.35" stroke="white" stroke-width="2" stroke-linecap="round" stroke-linejoin="round"/>
</g>
</svg>
